<svg width="24" height="24" viewBox="0 0 24 24" fill="none" xmlns="http://www.w3.org/2000/svg">
<path d="M16.2681 7.14L10.0438 9.8085C9.9373 9.85425 9.8533 9.939 9.80755 10.0448L7.1398 16.2698C7.06705 16.4393 7.1053 16.635 7.23505 16.7655C7.3648 16.8953 7.5613 16.9335 7.7308 16.8608L13.9551 14.1923C14.0616 14.1465 14.1456 14.0617 14.1913 13.956L16.8591 7.731C16.9318 7.5615 16.8936 7.36575 16.7638 7.23525C16.6333 7.10475 16.4376 7.06725 16.2681 7.14ZM14.2993 9.897L13.0656 12.7748C13.0461 12.8205 13.0048 12.8535 12.9561 12.8632C12.9073 12.873 12.8571 12.8573 12.8218 12.822L11.1778 11.178C11.1426 11.1427 11.1268 11.0925 11.1366 11.0438C11.1463 10.995 11.1793 10.9538 11.2251 10.9342L14.1028 9.7005C14.1591 9.6765 14.2243 9.68925 14.2678 9.732C14.3113 9.7755 14.3233 9.84075 14.2993 9.897ZM11.9998 0C8.92855 0 5.8573 1.1715 3.5143 3.5145C-1.17245 8.2005 -1.17245 15.7987 3.5143 20.4847C5.8573 22.8285 8.92855 24 11.9998 24C15.0711 24 18.1416 22.8285 20.4846 20.4855C25.1713 15.7995 25.1713 8.20125 20.4846 3.51525C18.1416 1.1715 15.0703 0 11.9998 0ZM19.4241 19.425C17.4411 21.408 14.8041 22.5 11.9998 22.5C9.19555 22.5 6.55855 21.408 4.5748 19.4242C2.59105 17.4405 1.4998 14.805 1.4998 12C1.4998 9.195 2.5918 6.55875 4.5748 4.575C6.55855 2.592 9.1948 1.5 11.9998 1.5C14.8048 1.5 17.4411 2.592 19.4241 4.57575C21.4071 6.5595 22.4998 9.195 22.4998 12C22.4998 14.805 21.4078 17.4412 19.4241 19.425Z" fill="#888585"/>
</svg>
